<svg width="11194" height="6994" viewBox="0 0 11194 6994" fill="none" xmlns="http://www.w3.org/2000/svg">
<path d="M3511.28 2782.58V3929.68C3511.28 4026.28 3481.6 4099.73 3422.22 4150.04C3362.85 4199.35 3278.31 4224 3168.62 4224C2944.21 4224 2832 4124.38 2832 3925.15V3547.82H3100.69V3914.59C3100.69 3972.95 3123.84 4002.13 3170.13 4002.13C3217.43 4002.13 3241.08 3972.95 3241.08 3914.59V3010.49H2952.76V2782.58H3511.28Z" fill="white"/>
<path d="M4088.97 4208.91L4061.8 3922.13L3867.07 3920.62L3839.9 4208.91H3563.66L3759.89 2782.58H4176.52L4366.72 4208.91H4088.97ZM3888.2 3698.75H4040.66L3998.4 3239.91L3974.25 3027.1H3956.13L3931.98 3239.91L3888.2 3698.75Z" fill="white"/>
<path d="M5099.71 3549.33V3899.49C5099.71 4006.15 5070.53 4087.15 5012.16 4142.5C4953.79 4196.83 4869.26 4224 4758.56 4224C4643.83 4224 4556.79 4192.3 4497.41 4128.91C4438.04 4065.52 4408.35 3972.44 4408.35 3849.68V3141.81C4408.35 3019.05 4438.04 2926.47 4497.41 2864.09C4557.79 2800.7 4644.84 2769 4758.56 2769C4869.26 2769 4953.79 2796.17 5012.16 2850.5C5070.53 2904.84 5099.71 2985.84 5099.71 3093.51V3407.45H4834.03V3085.96C4834.03 3056.78 4827.49 3034.14 4814.41 3018.04C4801.33 3000.93 4783.21 2992.38 4760.07 2992.38C4736.92 2992.38 4717.8 3000.93 4702.71 3018.04C4688.62 3034.14 4681.57 3056.78 4681.57 3085.96V3907.04C4681.57 3935.21 4688.62 3957.85 4702.71 3974.96C4717.8 3992.07 4736.92 4000.62 4760.07 4000.62C4783.21 4000.62 4801.33 3992.57 4814.41 3976.47C4827.49 3959.36 4834.03 3936.22 4834.03 3907.04V3547.82L5099.71 3549.33Z" fill="white"/>
<path d="M5981.57 4208.91H5681.18L5512.11 3568.95H5494V4208.91H5226.82V2782.58H5495.51L5494 3405.94H5510.6L5676.65 2782.58H5960.44L5753.64 3470.84L5981.57 4208.91Z" fill="white"/>
<path d="M6701.99 3256.52H6437.83V3067.85C6437.83 3015.52 6411.66 2989.36 6359.33 2989.36C6336.19 2989.36 6318.07 2995.9 6304.99 3008.98C6291.91 3022.07 6285.37 3038.16 6285.37 3057.28V3236.89C6285.37 3261.04 6290.4 3279.66 6300.46 3292.74C6311.53 3305.82 6329.64 3317.39 6354.8 3327.45L6487.64 3368.21C6565.13 3394.37 6622.99 3429.08 6661.24 3472.35C6699.48 3514.61 6718.6 3578 6718.6 3662.53V3899.49C6718.6 4000.12 6686.9 4079.61 6623.5 4137.97C6561.1 4195.32 6476.07 4224 6368.39 4224C6258.7 4224 6173.66 4198.84 6113.28 4148.53C6052.9 4097.22 6022.71 4026.78 6022.71 3937.23V3688.19H6289.89V3919.11C6289.89 3943.26 6296.44 3963.39 6309.52 3979.49C6323.61 3994.58 6343.23 4002.13 6368.39 4002.13C6391.53 4002.13 6410.15 3995.08 6424.24 3981C6438.33 3965.9 6445.37 3947.29 6445.37 3925.15V3703.28C6445.37 3653.97 6417.7 3620.27 6362.35 3602.15L6240.08 3565.93C6162.59 3544.8 6105.73 3511.09 6069.5 3464.8C6033.28 3417.51 6015.16 3352.11 6015.16 3268.59V3072.38C6015.16 2982.82 6044.85 2909.87 6104.22 2853.52C6163.6 2797.17 6250.14 2769 6363.86 2769C6472.55 2769 6556.07 2794.16 6614.44 2844.47C6672.81 2893.77 6701.99 2961.19 6701.99 3046.72V3256.52Z" fill="white"/>
<path d="M7177.62 2769C7293.35 2769 7380.9 2800.7 7440.28 2864.09C7500.66 2926.47 7530.85 3019.05 7530.85 3141.81V3849.68C7530.85 3972.44 7500.66 4065.52 7440.28 4128.91C7380.9 4192.3 7293.35 4224 7177.62 4224C7063.9 4224 6976.85 4192.3 6916.47 4128.91C6857.1 4065.52 6827.41 3972.44 6827.41 3849.68V3141.81C6827.41 3020.05 6857.1 2927.48 6916.47 2864.09C6976.85 2800.7 7063.9 2769 7177.62 2769ZM7257.62 3907.04V3085.96C7257.62 3057.79 7250.58 3035.15 7236.49 3018.04C7222.4 3000.93 7203.79 2992.38 7180.64 2992.38C7156.49 2992.38 7136.86 3000.93 7121.77 3018.04C7107.68 3034.14 7100.63 3056.78 7100.63 3085.96V3907.04C7100.63 3935.21 7107.68 3957.85 7121.77 3974.96C7136.86 3992.07 7155.98 4000.62 7179.13 4000.62C7202.28 4000.62 7220.89 3992.07 7234.98 3974.96C7250.08 3957.85 7257.62 3935.21 7257.62 3907.04Z" fill="white"/>
<path d="M8124.01 3529.71L8108.91 3173.5V2782.58H8361V4208.91H8101.36L7915.69 3399.9H7900.6L7915.69 3745.54V4208.91H7662.09V2782.58H7939.84L8110.42 3529.71H8124.01Z" fill="white"/>
</svg>
